<svg xmlns="http://www.w3.org/2000/svg" width="59" height="58" viewBox="0 0 59 58">
    <g fill="none" fill-rule="evenodd">
        <rect width="59" height="58" fill="#1d1d1d" rx="29"/>
        <path fill="#ff6600" d="M36.413 27.764c1.227.37 2.074 1.515 2.087 2.822-.154 2.09-.309 4.22-.463 6.394-.158 2.205-1.95 4.349-3.913 4.685a32.09 32.09 0 0 1-9.244 0c-1.963-.332-3.759-2.475-3.921-4.685l-.459-6.386c.007-1.304.847-2.45 2.07-2.825a32.122 32.122 0 0 1 13.843-.005zM29.5 16c2.627.024 4.738 2.217 4.714 4.899-.024 2.681-2.173 4.835-4.8 4.811-2.61-.024-4.714-2.19-4.714-4.855.013-2.693 2.161-4.866 4.8-4.855z"/>
    </g>
</svg>
