<svg xmlns="http://www.w3.org/2000/svg" xmlns:xlink="http://www.w3.org/1999/xlink" width="160" height="98" viewBox="0 0 160 98">
    <defs>
        <linearGradient id="a" x1="50%" x2="50%" y1="100%" y2="1.928%">
            <stop offset="0%" stop-color="#FCF3BD"/>
            <stop offset="100%" stop-color="#FFF" stop-opacity="0"/>
        </linearGradient>
        <linearGradient id="b" x1="50%" x2="50%" y1="100%" y2="0%">
            <stop offset="0%" stop-color="#FCF3BD"/>
            <stop offset="98.072%" stop-color="#FFF" stop-opacity="0"/>
        </linearGradient>
        <filter id="c" width="139.3%" height="469.2%" x="-19.7%" y="-184.6%" filterUnits="objectBoundingBox">
            <feGaussianBlur in="SourceGraphic" stdDeviation="8"/>
        </filter>
        <filter id="d" width="160.3%" height="141.4%" x="-29.3%" y="-20.7%" filterUnits="objectBoundingBox">
            <feOffset in="SourceAlpha" result="shadowOffsetOuter1"/>
            <feGaussianBlur in="shadowOffsetOuter1" result="shadowBlurOuter1" stdDeviation="3"/>
            <feColorMatrix in="shadowBlurOuter1" result="shadowMatrixOuter1" values="0 0 0 0 0 0 0 0 0 0 0 0 0 0 0 0 0 0 0.2 0"/>
            <feMerge>
                <feMergeNode in="shadowMatrixOuter1"/>
                <feMergeNode in="SourceGraphic"/>
            </feMerge>
        </filter>
        <linearGradient id="e" x1="50%" x2="50%" y1="0%" y2="100%">
            <stop offset="0%" stop-color="#FFE791"/>
            <stop offset="100%" stop-color="#FFD363"/>
        </linearGradient>
        <linearGradient id="f" x1="50%" x2="50%" y1="0%" y2="100%">
            <stop offset="0%" stop-color="#F7921A"/>
            <stop offset="100%" stop-color="#FB9E23"/>
        </linearGradient>
        <circle id="g" cx="25.92" cy="25.92" r="19.008"/>
        <filter id="h" width="110.5%" height="110.5%" x="-5.3%" y="-5.3%" filterUnits="objectBoundingBox">
            <feGaussianBlur in="SourceAlpha" result="shadowBlurInner1" stdDeviation="2"/>
            <feOffset in="shadowBlurInner1" result="shadowOffsetInner1"/>
            <feComposite in="shadowOffsetInner1" in2="SourceAlpha" k2="-1" k3="1" operator="arithmetic" result="shadowInnerInner1"/>
            <feColorMatrix in="shadowInnerInner1" values="0 0 0 0 0.867214073 0 0 0 0 0.488282569 0 0 0 0 0.00672378336 0 0 0 1 0"/>
        </filter>
        <text id="j" fill="#FFDB6D" font-family=".HelveticaNeueDeskInterface-Regular, .Helvetica Neue DeskInterface" font-size="25.92">
            <tspan x="19.461" y="35.368">₽</tspan>
        </text>
        <filter id="i" width="164.3%" height="200%" x="-32.2%" y="-50%" filterUnits="objectBoundingBox">
            <feOffset in="SourceAlpha" result="shadowOffsetOuter1"/>
            <feGaussianBlur in="shadowOffsetOuter1" result="shadowBlurOuter1" stdDeviation="5"/>
            <feColorMatrix in="shadowBlurOuter1" values="0 0 0 0 0.805776998 0 0 0 0 0.376886864 0 0 0 0 0 0 0 0 1 0"/>
        </filter>
        <filter id="k" width="176.9%" height="146.2%" x="-36.5%" y="-23.1%" filterUnits="objectBoundingBox">
            <feOffset in="SourceAlpha" result="shadowOffsetOuter1"/>
            <feGaussianBlur in="shadowOffsetOuter1" result="shadowBlurOuter1" stdDeviation="3"/>
            <feColorMatrix in="shadowBlurOuter1" result="shadowMatrixOuter1" values="0 0 0 0 0 0 0 0 0 0 0 0 0 0 0 0 0 0 0.2 0"/>
            <feMerge>
                <feMergeNode in="shadowMatrixOuter1"/>
                <feMergeNode in="SourceGraphic"/>
            </feMerge>
        </filter>
        <circle id="l" cx="25.92" cy="25.92" r="19.008"/>
        <filter id="m" width="110.5%" height="110.5%" x="-5.3%" y="-5.3%" filterUnits="objectBoundingBox">
            <feGaussianBlur in="SourceAlpha" result="shadowBlurInner1" stdDeviation="2"/>
            <feOffset in="shadowBlurInner1" result="shadowOffsetInner1"/>
            <feComposite in="shadowOffsetInner1" in2="SourceAlpha" k2="-1" k3="1" operator="arithmetic" result="shadowInnerInner1"/>
            <feColorMatrix in="shadowInnerInner1" values="0 0 0 0 0.867214073 0 0 0 0 0.488282569 0 0 0 0 0.00672378336 0 0 0 1 0"/>
        </filter>
        <text id="o" fill="#FFDB6D" font-family=".HelveticaNeueDeskInterface-Regular, .Helvetica Neue DeskInterface" font-size="25.92">
            <tspan x="19.461" y="35.368">₽</tspan>
        </text>
        <filter id="n" width="164.3%" height="200%" x="-32.2%" y="-50%" filterUnits="objectBoundingBox">
            <feOffset in="SourceAlpha" result="shadowOffsetOuter1"/>
            <feGaussianBlur in="shadowOffsetOuter1" result="shadowBlurOuter1" stdDeviation="5"/>
            <feColorMatrix in="shadowBlurOuter1" values="0 0 0 0 0.805776998 0 0 0 0 0.376886864 0 0 0 0 0 0 0 0 1 0"/>
        </filter>
        <filter id="p" width="129.2%" height="125%" x="-13.5%" y="-12.5%" filterUnits="objectBoundingBox">
            <feOffset in="SourceAlpha" result="shadowOffsetOuter1"/>
            <feGaussianBlur in="shadowOffsetOuter1" result="shadowBlurOuter1" stdDeviation="3"/>
            <feColorMatrix in="shadowBlurOuter1" result="shadowMatrixOuter1" values="0 0 0 0 0 0 0 0 0 0 0 0 0 0 0 0 0 0 0.2 0"/>
            <feMerge>
                <feMergeNode in="shadowMatrixOuter1"/>
                <feMergeNode in="SourceGraphic"/>
            </feMerge>
        </filter>
        <circle id="q" cx="43.2" cy="43.2" r="31.68"/>
        <filter id="r" width="109.5%" height="109.5%" x="-4.7%" y="-4.7%" filterUnits="objectBoundingBox">
            <feGaussianBlur in="SourceAlpha" result="shadowBlurInner1" stdDeviation="3"/>
            <feOffset in="shadowBlurInner1" result="shadowOffsetInner1"/>
            <feComposite in="shadowOffsetInner1" in2="SourceAlpha" k2="-1" k3="1" operator="arithmetic" result="shadowInnerInner1"/>
            <feColorMatrix in="shadowInnerInner1" values="0 0 0 0 0.867214073 0 0 0 0 0.488282569 0 0 0 0 0.00672378336 0 0 0 1 0"/>
        </filter>
        <text id="t" fill="#FFDB6D" font-family=".HelveticaNeueDeskInterface-Regular, .Helvetica Neue DeskInterface" font-size="43.2">
            <tspan x="32.435" y="59.28">₽</tspan>
        </text>
        <filter id="s" width="138.6%" height="158.8%" x="-19.3%" y="-29.4%" filterUnits="objectBoundingBox">
            <feOffset in="SourceAlpha" result="shadowOffsetOuter1"/>
            <feGaussianBlur in="shadowOffsetOuter1" result="shadowBlurOuter1" stdDeviation="5"/>
            <feColorMatrix in="shadowBlurOuter1" values="0 0 0 0 0.805776998 0 0 0 0 0.376886864 0 0 0 0 0 0 0 0 1 0"/>
        </filter>
        <path id="v" d="M64 24.127l-5.657 2.53L60.873 21l-2.53-5.657L64 17.873l5.657-2.53L67.127 21l2.53 5.657z"/>
        <filter id="u" width="145.7%" height="145.7%" x="-22.9%" y="-22.9%" filterUnits="objectBoundingBox">
            <feOffset in="SourceAlpha" result="shadowOffsetOuter1"/>
            <feGaussianBlur in="shadowOffsetOuter1" result="shadowBlurOuter1" stdDeviation="2"/>
            <feColorMatrix in="shadowBlurOuter1" values="0 0 0 0 1 0 0 0 0 1 0 0 0 0 1 0 0 0 0.500113225 0"/>
        </filter>
        <path id="x" d="M24.196 69.542l-4.242 1.897 1.897-4.243-1.897-4.242 4.242 1.897 4.243-1.897-1.897 4.242 1.897 4.243z"/>
        <filter id="w" width="170.7%" height="170.7%" x="-35.4%" y="-35.4%" filterUnits="objectBoundingBox">
            <feOffset in="SourceAlpha" result="shadowOffsetOuter1"/>
            <feGaussianBlur in="shadowOffsetOuter1" result="shadowBlurOuter1" stdDeviation="2"/>
            <feColorMatrix in="shadowBlurOuter1" values="0 0 0 0 1 0 0 0 0 1 0 0 0 0 1 0 0 0 0.500113225 0"/>
        </filter>
        <path id="z" d="M77.464 41.028l-2.828 1.265 1.264-2.829-1.264-2.828 2.828 1.264 2.829-1.264-1.265 2.828 1.265 2.829z"/>
        <filter id="y" width="220.7%" height="220.7%" x="-60.4%" y="-60.4%" filterUnits="objectBoundingBox">
            <feOffset in="SourceAlpha" result="shadowOffsetOuter1"/>
            <feGaussianBlur in="shadowOffsetOuter1" result="shadowBlurOuter1" stdDeviation="2"/>
            <feColorMatrix in="shadowBlurOuter1" values="0 0 0 0 1 0 0 0 0 1 0 0 0 0 1 0 0 0 0.500113225 0"/>
        </filter>
    </defs>
    <g fill="none" fill-rule="evenodd" transform="translate(-125 -150)">
        <g fill-rule="nonzero" opacity=".1">
            <path fill="url(#a)" d="M183 0h45l-17.532 173h-9.936z"/>
            <path fill="url(#b)" d="M220.043 5.828h44.51l-17.342 172.84h-9.827z" transform="rotate(18 242.298 92.248)"/>
            <path fill="url(#b)" d="M253.238 22.742h44.51l-17.34 172.84h-9.828z" transform="rotate(36 275.494 109.162)"/>
            <path fill="url(#b)" d="M279.583 49.087h44.51l-17.342 172.84h-9.827z" transform="rotate(54 301.838 135.506)"/>
            <path fill="url(#b)" d="M296.497 82.282h44.51l-17.342 172.84h-9.827z" transform="rotate(72 318.752 168.702)"/>
            <path fill="url(#b)" d="M302 119h45l-17.532 173h-9.936z" transform="rotate(90 324.5 205.5)"/>
            <path fill="url(#b)" d="M296.497 155.878h44.51l-17.342 172.84h-9.827z" transform="rotate(108 318.752 242.298)"/>
            <path fill="url(#b)" d="M279.583 189.074h44.51l-17.342 172.84h-9.827z" transform="rotate(126 301.838 275.494)"/>
            <path fill="url(#b)" d="M253.238 215.418h44.51l-17.34 172.84h-9.828z" transform="rotate(144 275.494 301.838)"/>
            <path fill="url(#b)" d="M220.043 232.332h44.51l-17.342 172.84h-9.827z" transform="rotate(162 242.298 318.752)"/>
            <path fill="url(#b)" d="M183 238h45l-17.532 173h-9.936z" transform="rotate(180 205.5 324.5)"/>
            <path fill="url(#b)" d="M146.447 232.332h44.51l-17.341 172.84h-9.827z" transform="rotate(-162 168.702 318.752)"/>
            <path fill="url(#b)" d="M113.251 215.418h44.51l-17.341 172.84h-9.827z" transform="rotate(-144 135.506 301.838)"/>
            <path fill="url(#b)" d="M86.907 189.074h44.51l-17.341 172.84h-9.827z" transform="rotate(-126 109.162 275.494)"/>
            <path fill="url(#b)" d="M69.993 155.878h44.51l-17.341 172.84h-9.827z" transform="rotate(-108 92.248 242.298)"/>
            <path fill="url(#b)" d="M64 119h45L91.468 292h-9.936z" transform="rotate(-90 86.5 205.5)"/>
            <path fill="url(#b)" d="M69.993 82.282h44.51l-17.341 172.84h-9.827z" transform="rotate(-72 92.248 168.702)"/>
            <path fill="url(#b)" d="M86.907 49.087h44.51l-17.341 172.84h-9.827z" transform="rotate(-54 109.162 135.506)"/>
            <path fill="url(#b)" d="M113.251 22.742h44.51l-17.341 172.84h-9.827z" transform="rotate(-36 135.506 109.162)"/>
            <path fill="url(#b)" d="M146.447 5.828h44.51l-17.341 172.84h-9.827z" transform="rotate(-18 168.702 92.248)"/>
        </g>
        <ellipse cx="207.8" cy="233.3" fill="#BD6924" fill-rule="nonzero" filter="url(#c)" rx="61" ry="6.5"/>
        <g filter="url(#d)" transform="translate(128 181)">
            <path d="M0 0h57.6v57.6H0z"/>
            <g transform="translate(2.88 2.88)">
                <circle cx="25.92" cy="25.92" r="25.92" fill="url(#e)"/>
                <use fill="url(#f)" xlink:href="#g"/>
                <use fill="#000" filter="url(#h)" xlink:href="#g"/>
                <g fill="#FFDB6D">
                    <use filter="url(#i)" xlink:href="#j"/>
                    <use xlink:href="#j"/>
                </g>
            </g>
        </g>
        <path d="M224 181h57.6v57.6H224z"/>
        <g filter="url(#k)" transform="translate(226.88 183.88)">
            <circle cx="25.92" cy="25.92" r="25.92" fill="url(#e)"/>
            <use fill="url(#f)" xlink:href="#l"/>
            <use fill="#000" filter="url(#m)" xlink:href="#l"/>
            <g fill="#FFDB6D">
                <use filter="url(#n)" xlink:href="#o"/>
                <use xlink:href="#o"/>
            </g>
        </g>
        <g filter="url(#p)" transform="translate(157 151)">
            <path d="M0 0h96v96H0z"/>
            <g transform="translate(4.8 4.8)">
                <circle cx="43.2" cy="43.2" r="43.2" fill="url(#e)"/>
                <use fill="url(#f)" xlink:href="#q"/>
                <use fill="#000" filter="url(#r)" xlink:href="#q"/>
                <g fill="#FFDB6D">
                    <use filter="url(#s)" xlink:href="#t"/>
                    <use xlink:href="#t"/>
                </g>
            </g>
            <use fill="#000" filter="url(#u)" xlink:href="#v"/>
            <use fill="#FFF" xlink:href="#v"/>
            <g transform="rotate(-150 24.196 67.196)">
                <use fill="#000" filter="url(#w)" xlink:href="#x"/>
                <use fill="#FFF" xlink:href="#x"/>
            </g>
            <g transform="rotate(-150 77.464 39.464)">
                <use fill="#000" filter="url(#y)" xlink:href="#z"/>
                <use fill="#FFF" xlink:href="#z"/>
            </g>
        </g>
    </g>
</svg>
