<svg xmlns="http://www.w3.org/2000/svg" xmlns:xlink="http://www.w3.org/1999/xlink" width="82" height="95" viewBox="0 0 82 95">
    <defs>
        <linearGradient id="a" x1="50%" x2="50%" y1="27.011%" y2="100%">
            <stop offset="0%" stop-color="#FC6426"/>
            <stop offset="100%" stop-color="#CF1E55"/>
        </linearGradient>
        <linearGradient id="b" x1="50%" x2="50%" y1="0%" y2="100%">
            <stop offset="0%" stop-color="#FFE791"/>
            <stop offset="100%" stop-color="#FFC123"/>
        </linearGradient>
        <linearGradient id="c" x1="50%" x2="50%" y1="0%" y2="100%">
            <stop offset="0%" stop-color="#FFE791"/>
            <stop offset="100%" stop-color="#FFD363"/>
        </linearGradient>
        <path id="d" d="M38.4 48h19.2v48H38.4z"/>
        <filter id="e" width="131.2%" height="112.5%" x="-15.6%" y="-6.2%" filterUnits="objectBoundingBox">
            <feGaussianBlur in="SourceAlpha" result="shadowBlurInner1" stdDeviation="1.5"/>
            <feOffset dy="3" in="shadowBlurInner1" result="shadowOffsetInner1"/>
            <feComposite in="shadowOffsetInner1" in2="SourceAlpha" k2="-1" k3="1" operator="arithmetic" result="shadowInnerInner1"/>
            <feColorMatrix in="shadowInnerInner1" values="0 0 0 0 1 0 0 0 0 0.781704525 0 0 0 0 0.218197601 0 0 0 1 0"/>
        </filter>
    </defs>
    <g fill="none" fill-rule="evenodd" transform="translate(-7 -1)">
        <path d="M0 0h96v96H0z"/>
        <rect width="67.2" height="67.2" x="14.4" y="28.8" fill="url(#a)" rx="2.4"/>
        <rect width="81.6" height="19.2" x="7.2" y="28.8" fill="url(#a)" rx="2.4"/>
        <path fill="url(#b)" d="M55.818 1.702h8.767a4.8 4.8 0 0 1 4.783 5.199l-1.6 19.2a4.8 4.8 0 0 1-4.783 4.401h-5.567a4.8 4.8 0 0 1-4.783-4.401l-1.6-19.2a4.8 4.8 0 0 1 4.783-5.199z" transform="rotate(52 60.201 16.102)"/>
        <path fill="url(#b)" d="M31.818 1.702h8.767a4.8 4.8 0 0 1 4.783 5.199l-1.6 19.2a4.8 4.8 0 0 1-4.783 4.401h-5.567a4.8 4.8 0 0 1-4.783-4.401l-1.6-19.2a4.8 4.8 0 0 1 4.783-5.199z" transform="scale(-1 1) rotate(52 0 -58.121)"/>
        <circle cx="48" cy="28.8" r="9.6" fill="url(#c)"/>
        <path fill="url(#c)" d="M38.4 28.8h19.2V48H38.4z"/>
        <use fill="url(#c)" xlink:href="#d"/>
        <use fill="#000" filter="url(#e)" xlink:href="#d"/>
    </g>
</svg>
