<svg xmlns="http://www.w3.org/2000/svg" width="162" height="47" viewBox="0 0 162 47.16"><defs><style>.cls-1{fill:#fff;}.cls-2{fill:#f60;}</style></defs><title>logo</title><g id="Layer_2" data-name="Layer 2"><g id="Layer_1-2" data-name="Layer 1"><path class="cls-1" d="M4.73,36.93a3.29,3.29,0,0,0,1,1.16,4.14,4.14,0,0,0,1.44.66A7,7,0,0,0,8.88,39a8.56,8.56,0,0,0,1.29-.1,4.28,4.28,0,0,0,1.29-.38,2.88,2.88,0,0,0,1-.79,2,2,0,0,0,.4-1.27,1.76,1.76,0,0,0-.53-1.35,4,4,0,0,0-1.39-.86A13.51,13.51,0,0,0,9,33.61c-.73-.17-1.47-.36-2.21-.58a18.63,18.63,0,0,1-2.23-.7,7.34,7.34,0,0,1-1.95-1.07,4.83,4.83,0,0,1-1.92-4,5.38,5.38,0,0,1,.67-2.74,6.25,6.25,0,0,1,1.76-1.93,7.65,7.65,0,0,1,2.47-1.14A10.36,10.36,0,0,1,8.34,21a13,13,0,0,1,3.08.36A7.88,7.88,0,0,1,14,22.55a6,6,0,0,1,1.82,2.05,6.38,6.38,0,0,1,.67,3H12.17a3.5,3.5,0,0,0-.38-1.52,2.49,2.49,0,0,0-.88-.94,3.7,3.7,0,0,0-1.24-.49,8.13,8.13,0,0,0-1.53-.14,5.68,5.68,0,0,0-1.09.11,2.9,2.9,0,0,0-1,.4,2.39,2.39,0,0,0-.73.72A1.94,1.94,0,0,0,5,26.85a1.86,1.86,0,0,0,.23,1,2,2,0,0,0,.9.69A11.45,11.45,0,0,0,8,29.14c.79.21,1.82.48,3.1.8.39.08.91.22,1.59.42a7.58,7.58,0,0,1,2,1,6.08,6.08,0,0,1,1.74,1.76,5,5,0,0,1,.73,2.82,6.36,6.36,0,0,1-.55,2.61,5.57,5.57,0,0,1-1.62,2.07,7.67,7.67,0,0,1-2.66,1.36,12.42,12.42,0,0,1-3.68.49A12.77,12.77,0,0,1,5.43,42a8.15,8.15,0,0,1-2.81-1.3A6.5,6.5,0,0,1,.69,38.45,6.74,6.74,0,0,1,0,35.18H4.36A3.74,3.74,0,0,0,4.73,36.93Z"/><path class="cls-1" d="M31.91,42,29.27,32h-.05L26.7,42H22.49l-4.7-14.81h4.29l2.73,10.06h.05l2.47-10.06h4l2.52,10h.06l2.72-10h4.18L36.09,42Z"/><path class="cls-1" d="M42.31,24.87V21.52h4.06v3.35Zm4.06,2.29V42H42.31V27.16Z"/><path class="cls-1" d="M53.16,27.16v1.89h.06a4.49,4.49,0,0,1,1.89-1.74,5.68,5.68,0,0,1,2.52-.55,6.4,6.4,0,0,1,3,.66,6.14,6.14,0,0,1,2.09,1.75A7.46,7.46,0,0,1,64,31.7a11.22,11.22,0,0,1,.4,3,10.1,10.1,0,0,1-.4,2.87A7.13,7.13,0,0,1,62.74,40a6,6,0,0,1-2,1.69,6.11,6.11,0,0,1-2.85.63,5.75,5.75,0,0,1-2.53-.55,4.91,4.91,0,0,1-1.91-1.65h-.06v7H49.3v-20Zm5.29,11.75a3.32,3.32,0,0,0,1.09-1,4.35,4.35,0,0,0,.58-1.5,8.84,8.84,0,0,0,0-3.5,4.73,4.73,0,0,0-.62-1.53,3.37,3.37,0,0,0-1.1-1.09,3.57,3.57,0,0,0-3.32,0A3.41,3.41,0,0,0,54,31.32a4.5,4.5,0,0,0-.59,1.51,9.51,9.51,0,0,0-.17,1.78,8,8,0,0,0,.19,1.75,4.37,4.37,0,0,0,.6,1.5,3.17,3.17,0,0,0,1.1,1,3.69,3.69,0,0,0,3.34,0Z"/><path class="cls-1" d="M70.86,38.42a4.16,4.16,0,0,0,4.76.27,2.59,2.59,0,0,0,1.09-1.3h3.58a6.8,6.8,0,0,1-2.64,3.81,7.76,7.76,0,0,1-4.29,1.14,8.46,8.46,0,0,1-3.15-.55,6.73,6.73,0,0,1-2.38-1.59,7.27,7.27,0,0,1-1.51-2.47,9.05,9.05,0,0,1-.53-3.15,8.65,8.65,0,0,1,.55-3.09A7.19,7.19,0,0,1,67.89,29a7.1,7.1,0,0,1,2.39-1.65,7.66,7.66,0,0,1,3.08-.6,7.12,7.12,0,0,1,3.29.73,6.57,6.57,0,0,1,2.31,2,8.23,8.23,0,0,1,1.3,2.81,10.59,10.59,0,0,1,.29,3.3H69.86A4.13,4.13,0,0,0,70.86,38.42Zm4.6-7.79a2.85,2.85,0,0,0-2.22-.8,3.54,3.54,0,0,0-1.62.33,3.15,3.15,0,0,0-1,.81,2.92,2.92,0,0,0-.54,1,4.53,4.53,0,0,0-.19,1h6.62A4.66,4.66,0,0,0,75.46,30.63Z"/><path class="cls-1" d="M94.8,41.74a7.85,7.85,0,0,1-3.14.6,8.17,8.17,0,0,1-2.59-.4A5.72,5.72,0,0,1,87,40.75a5.63,5.63,0,0,1-1.41-1.91,6.28,6.28,0,0,1-.51-2.6,5.15,5.15,0,0,1,.37-2,5.88,5.88,0,0,1,1-1.63,8,8,0,0,1,1.47-1.3,14.31,14.31,0,0,1,1.72-1,12.9,12.9,0,0,1-1.39-2A4.78,4.78,0,0,1,87.68,26,4.06,4.06,0,0,1,88.13,24a4.57,4.57,0,0,1,1.19-1.47,5.33,5.33,0,0,1,1.7-.95,6.06,6.06,0,0,1,2-.33,7.38,7.38,0,0,1,2.19.32,5.3,5.3,0,0,1,1.78.93,4.54,4.54,0,0,1,1.2,1.53,4.76,4.76,0,0,1,.44,2.12,4.54,4.54,0,0,1-1,3A9,9,0,0,1,95,31.29l2.63,3.23a5.77,5.77,0,0,0,.49-1.18,10.67,10.67,0,0,0,.26-1.25h3.52a11,11,0,0,1-.63,2.66,8.76,8.76,0,0,1-1.35,2.38L104.07,42h-5l-1.66-2A8.66,8.66,0,0,1,94.8,41.74Zm-4.08-8.25a4.44,4.44,0,0,0-.92.75,3.48,3.48,0,0,0-.64.94,2.73,2.73,0,0,0-.25,1.15,2.38,2.38,0,0,0,.25,1,2.52,2.52,0,0,0,.64.86,3.4,3.4,0,0,0,.93.58,3,3,0,0,0,1.11.21,3.59,3.59,0,0,0,1.9-.5,6.83,6.83,0,0,0,1.53-1.3L91.78,33A7.55,7.55,0,0,0,90.72,33.49Zm3.79-8.9a1.73,1.73,0,0,0-1.3-.58,1.85,1.85,0,0,0-1.29.5,1.71,1.71,0,0,0-.54,1.31,2.71,2.71,0,0,0,.51,1.66c.35.46.71.92,1.09,1.4a8.13,8.13,0,0,0,1.48-1.17A2.39,2.39,0,0,0,95.07,26,1.86,1.86,0,0,0,94.51,24.59Z"/><path class="cls-2" d="M124.82,42l-3.46-13.92h-.06L117.89,42h-4.55l-5.42-20.45h4.5l3.24,13.92h0l3.55-13.92h4.22L127,35.61H127l3.35-14.09h4.41L129.29,42Z"/><path class="cls-2" d="M141.06,21.52V42h-4.49V21.52Z"/><path class="cls-2" d="M149.2,21.52l8.53,13.72h.06V21.52H162V42h-4.5L149,28.28h-.06V42h-4.21V21.52Z"/><path class="cls-2" d="M114.23,8.08a2.07,2.07,0,0,0-1.49.45A2.09,2.09,0,0,0,112,9.91L111.9,11a31.28,31.28,0,0,0-48.52,1,2.06,2.06,0,0,0-.28,2,2,2,0,0,0,3.49.49A27.23,27.23,0,0,1,109.06,14l-1.59-.21a2,2,0,0,0-1.88.76,2.07,2.07,0,0,0-.28,2,2,2,0,0,0,1.61,1.24l6.21.85.27,0a2,2,0,0,0,1.27-.44,2.07,2.07,0,0,0,.76-1.4l.62-6.49A2,2,0,0,0,114.23,8.08Z"/></g></g></svg>