<svg xmlns="http://www.w3.org/2000/svg" width="81" height="32" viewBox="0 0 81 32">
    <g fill="none" fill-rule="evenodd">
        <path stroke="#FFF" stroke-width="2.051" d="M28.983 4.059v23.47c0 1.372-1.098 2.49-2.458 2.49H3.518c-1.364 0-2.465-1.117-2.465-2.49V4.06c0-1.37 1.102-2.49 2.465-2.49h23.007c1.36 0 2.458 1.122 2.458 2.49z"/>
        <path fill="#FFF" fill-rule="nonzero" d="M46.645 21.659l2.298-5.622h.253l.474 7.094h4.176l-.953-14.67h-4.032l-3.472 8.337h-.253l-3.615-8.336h-3.978l-.952 14.669h4.064l.42-7.094h.248l2.579 5.622h2.743m8.801-9.48h4.152V23.13h4.317V12.179h4.15l.249-3.717h-13.12l.252 3.717m25.067 7.269l.276 3.593s-2.466.313-4.32.313c-4.592 0-6.805-1.268-6.805-5.792v-3.565c0-4.103 1.827-5.79 6.834-5.79 1.885 0 4.066.312 4.066.312l-.247 3.595s-1.713-.253-3.487-.253c-2.459 0-2.877.758-2.877 2.755v2.33c0 1.939.472 2.726 2.877 2.726 1.964 0 3.683-.224 3.683-.224"/>
        <path fill="#FFF" d="M15.021 26.083c4.977 0 7.205-4.074 7.205-8.113 0-2.76-.914-5.936-2.439-8.5-1.484-2.48-3.266-3.953-4.766-3.953-1.504 0-3.286 1.473-4.757 3.952-1.534 2.565-2.448 5.742-2.448 8.501 0 4.039 2.225 8.113 7.205 8.113"/>
    </g>
</svg>
