<?xml version="1.0" encoding="UTF-8"?>
<svg width="100px" height="131px" viewBox="0 0 100 131" version="1.1" xmlns="http://www.w3.org/2000/svg" xmlns:xlink="http://www.w3.org/1999/xlink">
    <!-- Generator: Sketch 57.1 (83088) - https://sketch.com -->
    <title>1</title>
    <desc>Created with Sketch.</desc>
    <defs>
        <linearGradient x1="100%" y1="50%" x2="0%" y2="50%" id="linearGradient-1">
            <stop stop-color="#ff6600" offset="0%"></stop>
            <stop stop-color="#ff6600" offset="100%"></stop>
        </linearGradient>
    </defs>
    <g id="Page-1" stroke="none" stroke-width="1" fill="none" fill-rule="evenodd">
        <g id="1" transform="translate(-30.000000, -12.000000)" fill="url(#linearGradient-1)" fill-rule="nonzero">
            <path d="M90.5148508,34.0906099 C90.6382505,34.1446005 90.7571063,34.2084142 90.8702724,34.2814357 C95.1451441,37.2335911 96.5766465,42.8922684 94.2209179,47.5264174 L88.1733477,61.3077125 C91.4849957,61.5142104 94.5116906,63.246465 96.3655991,65.9963469 C97.4844503,67.7807016 98.0858734,69.8408731 98.1029401,71.9475993 C99.531433,71.5119119 101.04306,71.4235703 102.511997,71.6899276 C102.64202,71.7122699 102.770119,71.7445966 102.895158,71.7866206 C108.552672,73.6918656 109.799609,77.3476802 109.662692,81.0664714 C111.085998,80.8159453 112.538433,80.777991 113.972519,80.9538492 C114.116224,80.9694627 114.258345,80.997179 114.397366,81.0367027 C116.963429,81.6410804 119.152388,83.3041662 120.421714,85.6137674 C121.572041,88.0728765 121.741187,90.8787041 120.894705,93.4598486 C120.8721,93.5237437 120.848124,93.5874566 120.820141,93.6492855 L106.910403,125.345662 C106.832291,125.524408 106.733511,125.693408 106.616082,125.849205 C104.097953,128.965265 101.225932,131.778077 98.0582752,134.231278 C90.3207,140.276534 78.0222193,146.385137 64.0309083,140.256702 C54.1146973,135.91429 43.6575122,128.280292 41.2750001,104.582848 L38.2290876,77.9780547 C37.6897242,75.3975592 38.1102197,72.7081701 39.4117793,70.4138405 C40.580431,68.6590141 42.4230288,67.4654315 44.5020659,67.1164972 C44.8019995,67.0569166 45.1102663,67.0527732 45.4115979,67.1042722 C45.575259,67.131306 45.7397997,67.151435 45.9063077,67.1725087 C49.3503468,67.6050559 52.3126526,68.8662641 57.5262486,79.8286708 L75.8205134,38.1425493 C75.8961741,37.9691018 75.9915164,37.8049063 76.1046635,37.6531951 C79.4890185,33.2470298 85.4716762,31.7679562 90.5148508,34.0906099 Z M80.3065674,40.4658457 L59.858681,87.0601548 C59.4547367,87.9818369 58.5414993,88.5755799 57.5353382,88.5706804 C56.5291772,88.5657809 55.6227977,87.9631773 55.2294425,87.0376127 C49.1100595,72.6575722 46.7081535,72.3553158 45.2729337,72.1748247 L45.1002099,72.1536946 C44.7469845,72.2474501 44.4151956,72.4086728 44.1231567,72.6284638 C43.9321083,72.7776125 43.7679274,72.9582805 43.6377015,73.1626683 C43.0643412,74.3622129 42.9035205,75.7172676 43.1802684,77.0169402 C43.200627,77.1056112 43.2160229,77.1953524 43.2263846,77.2857461 L46.2889783,104.039954 C48.5154228,126.185217 57.6606352,131.960736 66.0568366,135.638002 C84.96996,143.91915 100.640865,125.257874 102.419427,123.033734 L116.146565,91.7535633 C116.526443,90.4898202 116.451519,89.1333278 115.934816,87.9198537 C115.331247,86.9198361 114.347862,86.2074223 113.209205,85.945284 C111.392145,85.7770389 109.193588,85.9143218 108.543823,87.388959 C108.538597,87.400692 108.528151,87.4079065 108.522851,87.4195441 L105.119416,95.1743251 C104.758316,96.0012786 103.98308,96.572798 103.086359,96.673134 C102.189638,96.77347 101.308016,96.3873402 100.774306,95.6605089 C100.240596,94.9336775 100.13609,93.9768512 100.500238,93.1512327 L103.838691,85.5449867 C105.185665,79.6299044 105.136649,77.9186573 101.467666,76.6288068 C100.423746,76.4674173 98.4487171,76.3626159 96.4312907,79.6878592 C96.1440423,80.3347128 95.8024842,80.9794775 95.441724,81.6214622 L95.4298445,81.6758778 L95.4298445,81.6758778 L92.0235716,89.4381718 C91.6616687,90.2632275 90.8871662,90.8329577 89.9918116,90.9327505 C89.0964571,91.0325433 88.2162762,90.6472378 87.6828246,89.9219749 C87.1493729,89.196712 87.0436946,88.2416763 87.4055976,87.4166206 L90.7801614,79.726563 C90.7904455,79.7007201 90.7867049,79.6733483 90.7979413,79.6477081 C91.1287249,78.8872176 91.5023709,78.1460603 91.9170788,77.4278073 C93.3761604,74.7348042 93.4574586,71.5071389 92.1357424,68.7465146 C90.6693063,66.8976133 88.338185,65.9561574 85.9973919,66.267456 L78.8467412,82.5596888 C78.2872877,83.8351143 76.7999924,84.4165113 75.5247742,83.8582754 C74.2495559,83.3000395 73.6693138,81.8135631 74.2287671,80.5381375 L89.603092,45.5035479 C90.9284683,43.1953661 90.3632763,40.2662505 88.2747411,38.6193503 C85.5063635,37.3813334 82.2506543,38.1357914 80.3065674,40.4658457 Z M121.67195,26.2961421 L122.569603,26.9693226 L122.056185,21.2109801 C121.907891,19.5294081 123.179038,18.0427537 124.903527,17.8931223 C126.628372,17.7566688 128.145553,19.0027433 128.295126,20.6810043 L129.488232,34.082954 C129.636562,35.7666218 128.365487,37.2526682 126.641871,37.3988247 L112.980915,38.5693941 C112.876944,38.5788323 112.788941,38.5833333 112.704234,38.5833333 C111.086101,38.5833333 109.72944,37.3690906 109.588795,35.7856484 C109.440456,34.1018805 110.711531,32.6158341 112.435147,32.4696776 L117.581865,32.0262367 L118.888039,31.9136966 L117.838649,31.1278613 C95.56231,14.4462389 64.4057465,14.4433431 42.1414614,31.1239896 L41.0920419,31.9102261 L47.5666584,32.4656944 C49.2906651,32.6152841 50.5618121,34.1019385 50.4134752,35.7839912 C50.2729033,37.3666097 48.9167251,38.5793921 47.2980636,38.5793921 C47.204608,38.5793921 47.1122774,38.5759577 47.0149362,38.5688837 L33.3589238,37.3968973 C31.6342706,37.2489522 30.3620686,35.7622135 30.5120486,34.0810766 L31.7051683,20.6770078 C31.8534703,18.9919701 33.3568304,17.7548816 35.1009388,17.8914965 C36.8220605,18.0374519 38.0941029,19.5240041 37.9441028,21.2070572 L37.5323416,25.8241261 L37.4327152,26.9412344 L38.3302098,26.2686574 C62.8420996,7.89959525 97.1577963,7.91214942 121.67195,26.2961421 Z"></path>
        </g>
    </g>
</svg>