<?xml version="1.0" encoding="UTF-8"?>
<svg width="126px" height="126px" viewBox="0 0 126 126" version="1.1" xmlns="http://www.w3.org/2000/svg" xmlns:xlink="http://www.w3.org/1999/xlink">
    <!-- Generator: Sketch 57.1 (83088) - https://sketch.com -->
    <title>5</title>
    <desc>Created with Sketch.</desc>
    <defs>
        <linearGradient x1="100%" y1="50%" x2="0%" y2="50%" id="linearGradient-1">
            <stop stop-color="#ff6600" offset="0%"></stop>
            <stop stop-color="#ff6600" offset="100%"></stop>
        </linearGradient>
    </defs>
    <g id="Page-1" stroke="none" stroke-width="1" fill="none" fill-rule="evenodd">
        <g id="5" transform="translate(-17.000000, -17.000000)" fill="url(#linearGradient-1)">
            <path d="M80,17 C114.793939,17 143,45.2060608 143,80 C143,114.793939 114.793939,143 80,143 C45.2060608,143 17,114.793939 17,80 C17,45.2060608 45.2060608,17 80,17 Z M80,25 C49.6243388,25 25,49.6243388 25,80 C25,110.375661 49.6243388,135 80,135 C110.375661,135 135,110.375661 135,80 C135,49.6243388 110.375661,25 80,25 Z M97.2234579,54.234375 L97.2234579,63.1894531 L77.5017782,63.1894531 L76.3738485,73.0673828 C77.1941651,72.5888648 78.2708145,72.1673195 79.603829,71.8027344 C80.9368434,71.4381492 82.2413551,71.2558594 83.5174032,71.2558594 C88.4620894,71.2558594 92.2616933,72.7198747 94.916329,75.6479492 C97.5709646,78.5760238 98.8982626,82.6832418 98.8982626,87.9697266 C98.8982626,91.1598467 98.1861929,94.0480014 96.7620321,96.6342773 C95.3378713,99.2205533 93.3383796,101.208652 90.7634969,102.598633 C88.1886143,103.988614 85.1466525,104.683594 81.6375204,104.683594 C78.51576,104.683594 75.5877294,104.039883 72.8533407,102.752441 C70.118952,101.465 67.9770464,99.6990672 66.4275594,97.4545898 C64.8780725,95.2101125 64.1147338,92.6751443 64.1375204,89.8496094 L75.6902547,89.8496094 C75.8041876,91.6725352 76.3852365,93.1194608 77.4334188,94.1904297 C78.4816011,95.2613986 79.8601681,95.796875 81.569161,95.796875 C85.4428783,95.796875 87.3797079,92.92581 87.3797079,87.1835938 C87.3797079,81.8743224 85.0099399,79.2197266 80.2703329,79.2197266 C77.5815173,79.2197266 75.5763291,80.0856033 74.2547079,81.8173828 L65.0945516,79.6640625 L68.1365438,54.234375 L97.2234579,54.234375 Z M55.7373047,78.0917969 L55.7373047,87.0126953 L35.1953125,87.0126953 L35.1953125,78.0917969 L55.7373047,78.0917969 Z"></path>
        </g>
    </g>
</svg>