<?xml version="1.0" encoding="UTF-8"?>
<svg width="100px" height="116px" viewBox="0 0 100 116" version="1.1" xmlns="http://www.w3.org/2000/svg" xmlns:xlink="http://www.w3.org/1999/xlink">
    <!-- Generator: Sketch 57.1 (83088) - https://sketch.com -->
    <title>2</title>
    <desc>Created with Sketch.</desc>
    <defs>
        <linearGradient x1="100%" y1="50%" x2="0%" y2="50%" id="linearGradient-1">
            <stop stop-color="#ff6600" offset="0%"></stop>
            <stop stop-color="#ff6600" offset="100%"></stop>
        </linearGradient>
    </defs>
    <g id="Page-1" stroke="none" stroke-width="1" fill="none" fill-rule="evenodd">
        <g id="2" transform="translate(-36.000000, -22.000000)" fill="url(#linearGradient-1)" fill-rule="nonzero">
            <path d="M80.351394,22.6754787 L80.5554054,22.6797297 C111.362162,24.0148649 135.493243,49.2297297 135.493243,80.0824324 C135.493243,111.764865 109.717568,137.540541 78.0364865,137.540541 C62.8581081,137.540541 48.5310811,131.655405 37.6959459,120.966216 C36.127027,119.416216 36.1094595,116.887838 37.6581081,115.318919 C39.2054054,113.75 41.7337838,113.72973 43.3040541,115.281081 C52.6351351,124.486486 64.9716216,129.554054 78.0378378,129.554054 C105.316216,129.554054 127.509459,107.363514 127.509459,80.0837838 C127.509459,53.5189189 106.733784,31.8094595 80.2081081,30.6581081 C78.0054054,30.5621622 76.2959459,28.6986486 76.3932432,26.4959459 C76.4878378,24.2918919 78.2972973,22.5783784 80.5554054,22.6797297 Z M78.4891892,48.4635135 C81.427027,48.4635135 83.8175676,50.8540541 83.8175676,53.7932432 L83.8175676,53.7932432 L83.8175676,77.6175676 C83.8175676,79.0972973 83.1986486,80.5202703 82.1135135,81.5243243 L82.1135135,81.5243243 L60.0824324,102.02027 C59.0972973,102.941892 57.8081081,103.448649 56.4540541,103.448649 C54.977027,103.448649 53.5540541,102.828378 52.5486486,101.745946 C50.55,99.5972973 50.6702703,96.2175676 52.822973,94.2148649 L52.822973,94.2148649 L73.1594595,75.3 L73.1594595,53.7932432 C73.1594595,50.8540541 75.55,48.4635135 78.4891892,48.4635135 Z"></path>
        </g>
    </g>
</svg>