<svg xmlns="http://www.w3.org/2000/svg" width="36" height="36" viewBox="0 0 36 36">
    <defs>
        <linearGradient id="a" x1="50%" x2="50%" y1="0%" y2="100%">
            <stop offset="0%" stop-color="#7BE6FF"/>
            <stop offset="100%" stop-color="#529FFC"/>
        </linearGradient>
    </defs>
    <g fill="none" fill-rule="evenodd" transform="translate(-2 -2)">
        <path d="M0 0h40v40H0z"/>
        <circle cx="20" cy="20" r="18" fill="url(#a)"/>
        <path fill="#FFF" stroke="#FFF" stroke-linecap="round" stroke-linejoin="round" d="M25.5 16.013c-1.2 0-2.333.467-3.146 1.28L20 19.375l-.004-.005-1.263 1.113.009.008-2.246 1.992c-.533.529-1.242.82-1.996.82a2.822 2.822 0 0 1-2.825-2.812A2.822 2.822 0 0 1 14.5 17.68c.754 0 1.463.291 2.033.858l.946.838 1.258-1.113-1.054-.933a4.482 4.482 0 0 0-3.183-1.313c-2.483-.004-4.5 2.004-4.5 4.475 0 2.471 2.017 4.48 4.5 4.48 1.2 0 2.33-.467 3.146-1.276L20 21.61l.004.004 1.258-1.117-.004-.004 2.246-1.987a2.802 2.802 0 0 1 1.996-.825 2.822 2.822 0 0 1 2.825 2.812 2.822 2.822 0 0 1-2.825 2.813c-.754 0-1.463-.292-2.033-.854l-.946-.838-1.259 1.117 1.055.933a4.475 4.475 0 0 0 3.179 1.308c2.487 0 4.504-2.008 4.504-4.479 0-2.47-2.017-4.479-4.5-4.479z"/>
    </g>
</svg>
