<?xml version="1.0" encoding="UTF-8" standalone="no"?>
<svg
   xmlns:dc="http://purl.org/dc/elements/1.1/"
   xmlns:cc="http://creativecommons.org/ns#"
   xmlns:rdf="http://www.w3.org/1999/02/22-rdf-syntax-ns#"
   xmlns:svg="http://www.w3.org/2000/svg"
   xmlns="http://www.w3.org/2000/svg"
   xmlns:sodipodi="http://sodipodi.sourceforge.net/DTD/sodipodi-0.dtd"
   xmlns:inkscape="http://www.inkscape.org/namespaces/inkscape"
   width="120px"
   height="99px"
   viewBox="0 0 120 99"
   version="1.1"
   id="svg36"
   sodipodi:docname="icon_score.svg"
   inkscape:version="0.92.4 (5da689c313, 2019-01-14)">
  <metadata
     id="metadata40">
    <rdf:RDF>
      <cc:Work
         rdf:about="">
        <dc:format>image/svg+xml</dc:format>
        <dc:type
           rdf:resource="http://purl.org/dc/dcmitype/StillImage" />
        <dc:title>D6DDCE05-E011-4714-BE92-D5A4C349ABEA</dc:title>
      </cc:Work>
    </rdf:RDF>
  </metadata>
  <sodipodi:namedview
     pagecolor="#ffffff"
     bordercolor="#666666"
     borderopacity="1"
     objecttolerance="10"
     gridtolerance="10"
     guidetolerance="10"
     inkscape:pageopacity="0"
     inkscape:pageshadow="2"
     inkscape:window-width="2307"
     inkscape:window-height="1146"
     id="namedview38"
     showgrid="false"
     inkscape:zoom="2.3666667"
     inkscape:cx="60"
     inkscape:cy="49.5"
     inkscape:window-x="0"
     inkscape:window-y="0"
     inkscape:window-maximized="0"
     inkscape:current-layer="svg36" />
  <!-- Generator: sketchtool 52.6 (67491) - http://www.bohemiancoding.com/sketch -->
  <title
     id="title2">D6DDCE05-E011-4714-BE92-D5A4C349ABEA</title>
  <desc
     id="desc4">Created with sketchtool.</desc>
  <defs
     id="defs26">
    <linearGradient
       x1="50%"
       y1="0%"
       x2="50%"
       y2="100%"
       id="linearGradient-1">
      <stop
         stop-color="#ff6600"
         offset="0%"
         id="stop6" />
      <stop
         stop-color="#ff6600"
         offset="100%"
         id="stop8" />
    </linearGradient>
    <linearGradient
       x1="-21.7358408%"
       y1="28.2641592%"
       x2="100%"
       y2="100%"
       id="linearGradient-2">
      <stop
         stop-color="#ff6600"
         offset="0%"
         id="stop11" />
      <stop
         stop-color="#ff6600"
         offset="100%"
         id="stop13" />
    </linearGradient>
    <linearGradient
       x1="50%"
       y1="100%"
       x2="50%"
       y2="3.061617e-15%"
       id="linearGradient-3">
      <stop
         stop-color="#ff6600"
         offset="0%"
         id="stop16" />
      <stop
         stop-color="#ff6600"
         offset="100%"
         id="stop18" />
    </linearGradient>
    <linearGradient
       x1="50%"
       y1="0%"
       x2="6.52831839%"
       y2="100%"
       id="linearGradient-4">
      <stop
         stop-color="#ff6600"
         offset="0%"
         id="stop21" />
      <stop
         stop-color="#ff6600"
         offset="100%"
         id="stop23" />
    </linearGradient>
  </defs>
  <g
     id="web-app"
     stroke="none"
     stroke-width="1"
     fill="none"
     fill-rule="evenodd">
    <g
       id="2.4_tutorial"
       transform="translate(-100.000000, -151.000000)">
      <g
         id="Group-2"
         transform="translate(73.000000, 112.000000)">
        <g
           id="Group"
           transform="translate(27.000000, 38.000000)">
          <path
             d="M41,40 L79,40 C79.5522847,40 80,40.4477153 80,41 L80,100 L40,100 L40,41 C40,40.4477153 40.4477153,40 41,40 Z"
             id="Rectangle"
             fill="url(#linearGradient-1)" />
          <path
             d="M1,60 L39,60 C39.5522847,60 40,60.4477153 40,61 L40,100 L1,100 C0.44771525,100 6.76353751e-17,99.5522847 0,99 L0,61 C-6.76353751e-17,60.4477153 0.44771525,60 1,60 Z"
             id="Rectangle-Copy"
             fill="url(#linearGradient-2)" />
          <path
             d="M60,30 L50.0377671,35.2374558 C49.5489225,35.4944566 48.9442954,35.3065101 48.6872946,34.8176655 C48.5849555,34.623005 48.5496408,34.4000369 48.5868177,34.1832793 L50.4894348,23.0901699 L42.4298191,15.2339863 C42.0343355,14.8484851 42.0262432,14.2153718 42.4117445,13.8198882 C42.5652531,13.6624046 42.7663955,13.5599174 42.9840325,13.5282929 L54.1221475,11.9098301 L59.1032639,1.81698575 C59.3476862,1.32173209 59.9473121,1.11839309 60.4425657,1.36281539 C60.6397783,1.46014562 60.7994058,1.61977315 60.8967361,1.81698575 L65.8778525,11.9098301 L77.0159675,13.5282929 C77.5625124,13.6077105 77.9411938,14.1151534 77.8617762,14.6616982 C77.8301517,14.8793353 77.7276645,15.0804777 77.5701809,15.2339863 L69.5105652,23.0901699 L71.4131823,34.1832793 C71.5065434,34.7276157 71.1409555,35.2445717 70.5966191,35.3379327 C70.3798615,35.3751095 70.1568934,35.3397948 69.9622329,35.2374558 L60,30 Z"
             id="Star"
             fill="url(#linearGradient-3)" />
          <path
             d="M81,70 L119,70 C119.552285,70 120,70.4477153 120,71 L120,99 C120,99.5522847 119.552285,100 119,100 L80,100 L80,71 C80,70.4477153 80.4477153,70 81,70 Z"
             id="Rectangle-Copy-2"
             fill="url(#linearGradient-4)" />
        </g>
      </g>
    </g>
  </g>
</svg>
