<?xml version="1.0" encoding="UTF-8"?>
<svg width="118px" height="127px" viewBox="0 0 118 127" version="1.1" xmlns="http://www.w3.org/2000/svg" xmlns:xlink="http://www.w3.org/1999/xlink">
    <!-- Generator: Sketch 57.1 (83088) - https://sketch.com -->
    <title>4</title>
    <desc>Created with Sketch.</desc>
    <defs>
        <linearGradient x1="100%" y1="50%" x2="0%" y2="50%" id="linearGradient-1">
            <stop stop-color="#ff6600" offset="0%"></stop>
            <stop stop-color="#ff6600" offset="100%"></stop>
        </linearGradient>
    </defs>
    <g id="Page-1" stroke="none" stroke-width="1" fill="none" fill-rule="evenodd">
        <g id="4" transform="translate(-21.000000, -17.000000)" fill="url(#linearGradient-1)">
            <path d="M92.365,76.587 L131.043,76.587 L131.043,56.243 L92.365,56.243 L92.365,76.587 Z M92.366,136.175 L117.266,136.175 L117.266,83.754 L92.366,83.754 L92.366,136.175 Z M88.986,49.076 L89.234,47.874 C89.333,47.398 89.419,46.943 89.504,46.491 C89.933,44.226 90.337,42.085 92.07,38.041 C93.321,35.122 95.423,31.031 98.334,28.121 C101.063,25.393 103.765,24.176 107.098,24.176 C113.01,24.176 114.709,26.585 115.942,29.053 C117.202,31.571 117.264,34.213 117.266,34.324 C117.271,34.487 117.29,34.662 117.321,34.835 C117.345,34.985 117.793,38.01 115.473,41.431 C112.08,46.434 104.644,49.006 93.372,49.076 L90.214,49.076 L88.986,49.076 Z M74.022,76.587 L85.189,76.587 L85.189,56.243 L74.022,56.243 L74.022,76.587 Z M74.022,136.175 L85.189,136.175 L85.189,83.754 L74.022,83.754 L74.022,136.175 Z M65.855,49.076 C54.569,49.006 47.13,46.434 43.738,41.431 C41.418,38.01 41.866,34.985 41.886,34.858 C41.921,34.663 41.94,34.488 41.946,34.311 C41.947,34.214 42.009,31.571 43.268,29.053 C44.502,26.585 46.201,24.176 52.112,24.176 C55.445,24.176 58.148,25.393 60.876,28.121 C63.788,31.032 65.89,35.122 67.141,38.041 C68.874,42.084 69.278,44.224 69.706,46.49 C69.792,46.941 69.877,47.397 69.976,47.874 L70.224,49.076 L65.855,49.076 Z M28.177,76.587 L66.855,76.587 L66.855,56.243 L28.177,56.243 L28.177,76.587 Z M41.946,136.175 L66.855,136.175 L66.855,83.754 L41.946,83.754 L41.946,136.175 Z M138.211018,52.678 C138.214,51.726 137.832,50.797 137.161,50.126 C136.493,49.458 135.57,49.076 134.627,49.076 L134.613,49.076 L118.361,49.076 L119.876,47.404 C120.491,46.726 120.998,46.089 121.427,45.456 C125.048,40.116 124.428,34.679 124.345,34.076 L124.335,33.931 C124.339,32.952 124.208,29.581 122.345,25.856 C120.205,21.574 115.075,17 107.098,17 C102.088,17 97.173,19.156 93.258,23.071 C90.23,26.1 87.688,30.071 85.484,35.211 C83.101,40.774 82.022,45.332 81.418,48.278 L81.254,49.076 L77.958,49.076 L77.793,48.278 C77.189,45.33 76.108,40.77 73.727,35.211 C71.523,30.071 68.981,26.1 65.953,23.071 C62.038,19.156 57.122,17 52.112,17 C44.136,17 39.006,21.574 36.866,25.856 C35,29.587 34.872,32.955 34.876,33.899 L34.867,34.067 C34.783,34.679 34.163,40.117 37.784,45.455 C38.212,46.089 38.72,46.727 39.335,47.404 L40.852,49.076 L24.61,49.076 C23.679,49.107 22.724,49.452 22.052,50.124 C21.379,50.795 20.996,51.724 20.999969,52.674 L20.999969,80.153 C20.996,81.107 21.38,82.036 22.052,82.707 C22.719,83.373 23.64,83.754 24.582,83.754 L24.604,83.754 L33.778,83.754 L34.778,83.754 L34.778,139.777 C34.786,141.734 36.387,143.334 38.348,143.342 L120.867,143.342 C122.824,143.334 124.425,141.734 124.433,139.773 L124.433,83.754 L134.609,83.754 L134.623,83.754 C135.57,83.754 136.493,83.372 137.162,82.705 C137.841,82.025 138.214,81.119 138.211018,80.156 L138.211018,52.678 Z"></path>
        </g>
    </g>
</svg>