<?xml version="1.0" encoding="UTF-8"?>
<svg width="24px" height="24px" viewBox="0 0 24 24" version="1.1" xmlns="http://www.w3.org/2000/svg" xmlns:xlink="http://www.w3.org/1999/xlink">
    <!-- Generator: Sketch 57.1 (83088) - https://sketch.com -->
    <title>info</title>
    <desc>Created with Sketch.</desc>
    <defs>
        <linearGradient x1="100%" y1="50%" x2="0%" y2="50%" id="linearGradient-1">
            <stop stop-color="#ff6600" offset="0%"></stop>
            <stop stop-color="#ff6600" offset="100%"></stop>
        </linearGradient>
    </defs>
    <g id="Page-1" stroke="none" stroke-width="1" fill="none" fill-rule="evenodd">
        <g id="info" transform="translate(-3.000000, -3.000000)">
            <polygon id="Path" points="0 0 30 0 30 30 0 30"></polygon>
            <polygon id="Path" points="0 0 30 0 30 30 0 30"></polygon>
            <path d="M15,27 C8.373,27 3,21.627 3,15 C3,8.373 8.373,3 15,3 C21.627,3 27,8.373 27,15 C27,21.627 21.627,27 15,27 Z M15,8 C14.4477153,8 14,8.44771525 14,9 C14,9.55228475 14.4477153,10 15,10 C15.5522847,10 16,9.55228475 16,9 C16,8.44771525 15.5522847,8 15,8 Z M15,12 C14.4477153,12 14,12.4477153 14,13 L14,21 C14,21.5522847 14.4477153,22 15,22 C15.5522847,22 16,21.5522847 16,21 L16,13 C16,12.4477153 15.5522847,12 15,12 Z" id="Shape" fill="url(#linearGradient-1)" fill-rule="nonzero"></path>
        </g>
    </g>
</svg>