<?xml version="1.0" encoding="UTF-8"?>
<svg width="24px" height="24px" viewBox="0 0 24 24" version="1.1" xmlns="http://www.w3.org/2000/svg" xmlns:xlink="http://www.w3.org/1999/xlink">
    <!-- Generator: Sketch 57.1 (83088) - https://sketch.com -->
    <title>noun_Globe_2693239</title>
    <desc>Created with Sketch.</desc>
    <defs>
        <linearGradient x1="100%" y1="50%" x2="0%" y2="50%" id="linearGradient-1">
            <stop stop-color="#ff6600" offset="0%"></stop>
            <stop stop-color="#ff6600" offset="100%"></stop>
        </linearGradient>
    </defs>
    <g id="Page-1" stroke="none" stroke-width="1" fill="none" fill-rule="evenodd">
        <g id="noun_Globe_2693239" fill="url(#linearGradient-1)" fill-rule="nonzero">
            <g id="Group">
                <path d="M11.6376437,23.99467 L11.588071,23.9932118 L11.4301022,23.9867959 C11.363304,23.9836939 11.296605,23.9800473 11.2300102,23.9758584 L11.588071,23.9932118 C11.423912,23.9877852 11.2604156,23.9791073 11.0976141,23.9671857 C11.0092738,23.9602777 10.9217034,23.9528489 10.8343327,23.9444816 C10.7853459,23.9403592 10.7362889,23.9353861 10.6872982,23.9301156 C10.620394,23.9222632 10.5533927,23.914453 10.4865192,23.9060898 C10.4246346,23.8990868 10.3632916,23.8909529 10.3020575,23.8823484 C10.2359084,23.8722642 10.1695249,23.8623537 10.1032792,23.8518965 C10.0397335,23.8426733 9.97676291,23.8322128 9.91391291,23.8212498 C9.87040308,23.8128698 9.82629116,23.8049287 9.78224491,23.7967442 C9.68111437,23.7786881 9.58084061,23.758669 9.48088916,23.7373586 C9.38400706,23.7161463 9.28715311,23.6942967 9.19065949,23.6712596 C9.16629416,23.665789 9.1422266,23.6599365 9.11817858,23.6540081 C9.01682234,23.6288471 8.91572517,23.602626 8.8150539,23.5750965 C8.79073594,23.5682935 8.76638443,23.5615125 8.74205391,23.5546526 C8.63425147,23.5246641 8.52697541,23.4929498 8.42022088,23.4597428 C8.40741141,23.4549235 8.3944136,23.4508304 8.38142206,23.4467145 C6.56447226,22.8755412 4.90007756,21.8706341 3.51474783,20.4853043 C1.2482087,18.2187652 0,15.2053565 0,12 C0,8.79469565 1.2482087,5.78123478 3.51474783,3.51474783 C4.90007756,2.1293862 6.56447226,1.12446669 8.38116822,0.552481847 C8.3944136,0.549183507 8.40741141,0.545090244 8.42041547,0.541019813 C8.52697541,0.507052876 8.63425147,0.475338291 8.74202342,0.445127004 C8.76638443,0.438497451 8.79073594,0.431716192 8.81510832,0.425013786 C8.91572517,0.397375843 9.01682234,0.371154543 9.11832464,0.346250253 C9.1422266,0.340070291 9.16629416,0.334217568 9.19038114,0.328440699 C9.28715311,0.305704504 9.38400706,0.283854842 9.4812036,0.263200133 C9.58084061,0.241334992 9.68111437,0.221315484 9.78170225,0.20258945 C9.82629116,0.195071898 9.87040308,0.187130827 9.91457906,0.179433923 C9.97676291,0.16778951 10.0397335,0.157328811 10.1028227,0.147371169 C10.1695249,0.137646637 10.2359084,0.127736154 10.3024243,0.118374675 C10.3632916,0.10904829 10.4246346,0.10091427 10.4860848,0.0932513644 C10.5533927,0.0855471353 10.620394,0.0777369151 10.6875179,0.0704819509 C10.7362889,0.0646144271 10.7853459,0.0596413137 10.8344685,0.0549659072 C10.9217034,0.0471511268 11.0092738,0.0397223154 11.0970322,0.0332370027 C11.1419057,0.0295711174 11.1862487,0.0265678031 11.2306425,0.0238047291 C11.296605,0.0199526758 11.363304,0.0163061107 11.4301022,0.0132040962 C11.4988946,0.00986553619 11.567849,0.00728035431 11.63692,0.00527000485 C11.7581355,0.00178080049 11.8789309,0 12,0 C12.1210711,0 12.2418683,0.00178080049 12.3623618,0.00533001379 L12,0 C12.1908501,0 12.3808515,0.00434561928 12.5699548,0.0130249775 C12.6367051,0.0163061107 12.703405,0.0199526758 12.7700004,0.0241416616 C12.8137703,0.0265678031 12.8581142,0.0295711174 12.9024067,0.0328145169 C12.9907393,0.0397223154 13.0783106,0.0471511268 13.1656821,0.0555185324 C13.2146802,0.0596413137 13.2637381,0.0646144271 13.3127295,0.0698850326 C13.3796227,0.0777369151 13.4466246,0.0855471353 13.5134986,0.09391037 C13.5753967,0.10091427 13.6367404,0.10904829 13.6979752,0.117652995 C13.7641112,0.127736154 13.8304951,0.137646637 13.8967412,0.148103897 C13.9603019,0.157328811 14.023273,0.16778951 14.0861235,0.178752793 C14.1296187,0.187130827 14.1737308,0.195071898 14.2177773,0.203256466 C14.3189235,0.221315484 14.4191977,0.241334992 14.5191495,0.262646012 C14.6160168,0.283854842 14.712871,0.305704504 14.8093649,0.328741772 C14.833745,0.334217568 14.8578125,0.340070291 14.8818605,0.345998838 C14.9832025,0.371154543 15.0842999,0.397375843 15.1849713,0.424905557 C15.2093024,0.431716192 15.2336538,0.438497451 15.2579842,0.445357534 C15.3657741,0.475338291 15.4730503,0.507052876 15.5798049,0.540260147 C15.5926246,0.545090244 15.6056223,0.549183507 15.6186137,0.553299596 C17.4355551,1.12446669 19.0999427,2.1293862 20.4853043,3.51474783 C22.7517913,5.78123478 24,8.79469565 24,12 C24,15.2053565 22.7517913,18.2187652 20.4853043,20.4853043 C19.104299,21.8663415 17.4459682,22.8692886 15.6358805,23.4421667 C15.6239584,23.4450261 15.6126212,23.4486176 15.6012793,23.4521917 C15.5049763,23.4832204 15.4076664,23.5123311 15.3099441,23.5402036 C15.2654498,23.5526374 15.2214521,23.5649813 15.1773862,23.5770675 C15.1157945,23.5939851 15.0534544,23.6104479 14.9909569,23.6264097 C14.929855,23.6422426 14.8688316,23.6573853 14.8076829,23.6720392 C14.7632133,23.6822815 14.7189877,23.692565 14.6746883,23.7025992 C14.4200504,23.7610046 14.1630214,23.8105226 13.9039904,23.8515589 C13.8447917,23.860136 13.7857253,23.8690449 13.7265534,23.877519 C13.6602342,23.8877832 13.593269,23.8967816 13.5261759,23.9052181 C13.4675765,23.9118894 13.4095283,23.9187803 13.3513873,23.9252543 C13.2935938,23.9323026 13.2352216,23.9383439 13.1767565,23.9439633 C13.1111797,23.9497584 13.0455632,23.955564 12.979839,23.9608399 C12.906356,23.9671186 12.8329799,23.9722927 12.7594647,23.9768082 C12.7193488,23.9790076 12.6786673,23.9813285 12.6379482,23.9834468 C12.5539183,23.9879858 12.4701977,23.9914334 12.3863046,23.9940326 C12.2915768,23.9969181 12.1965073,23.9988026 12.1012628,23.9995845 C12.0892376,23.9996887 12.0772053,23.9997685 12.0651696,23.9998309 L12.0591693,23.9998582 L12,24 L12,24 C11.8789309,24 11.7581355,23.9982192 11.6376437,23.99467 Z M12,17.5721739 C10.5367095,17.5721739 9.09263143,17.698536 7.69979951,17.9450152 C7.9151031,18.6413023 8.17084357,19.291612 8.46386087,19.8855652 C9.30982739,21.6004037 10.3648953,22.6480737 11.4788602,22.8981879 L11.478,17.578 L12,17.5721739 Z M12.5221709,17.5775471 L12.5211398,22.8981879 C13.6351047,22.6480737 14.6901726,21.6004037 15.5361391,19.8855652 C15.8291564,19.291612 16.0848969,18.6413023 16.3009773,17.9463485 C15.0739032,17.7281051 13.8069752,17.6040144 12.5221709,17.5775471 Z M6.6715062,18.1525075 L6.61163111,18.1643988 C5.57996485,18.3983648 4.58245428,18.7001414 3.63297078,19.0670244 C5.02071833,20.7070111 6.88135242,21.9356269 9.00240491,22.5397293 L9.01037154,22.5487185 C8.46551526,21.9739203 7.96644966,21.2358747 7.52801739,20.3472 C7.19689393,19.6760199 6.91038439,18.9395467 6.6715062,18.1525075 Z M17.3276763,18.15073 L17.2386224,18.4392094 C17.0187912,19.1188563 16.7625638,19.7581703 16.4719826,20.3472 C16.0357622,21.2313915 15.5395186,21.9664698 14.9987157,22.539797 C17.11923,21.9352423 18.9794989,20.7067543 20.367098,19.0662813 C19.4024026,18.6940014 18.3827079,18.3869713 17.3276763,18.15073 Z M2.97530932,18.2066624 L2.58245217,18.3680348 C3.78274265,17.85475 5.0635605,17.4446899 6.39758202,17.1431831 C6.05368625,15.7115891 5.85618113,14.1452089 5.82127118,12.521888 L1.05575393,12.5219763 C1.15488628,14.6252879 1.8498833,16.5753284 2.97530932,18.2066624 Z M22.9442461,12.5219763 L18.177,12.521 L18.1769037,12.6007074 C18.1373728,14.1959463 17.9406549,15.7349617 17.6017409,17.1447112 C18.7920425,17.4122397 19.9395244,17.7673216 21.0252685,18.2050934 C22.1501167,16.5753284 22.8451137,14.6252879 22.9442461,12.5219763 Z M11.478,12.521 L6.865,12.521 L6.86630787,12.5786553 C6.90441843,14.1146961 7.0940554,15.5914158 7.42056503,16.9367984 C8.73846572,16.6966548 10.0992445,16.5611392 11.4785547,16.5338494 L11.478,12.521 Z M17.1350294,12.5219205 L12.521,12.521 L12.521,16.535 L12.6662568,16.5371089 C13.9959573,16.5707214 15.3075383,16.7048084 16.5786561,16.9350116 C16.9098845,15.5746809 17.1002203,14.0783141 17.1350294,12.5219205 Z M2.97377145,5.79454657 C1.8493112,7.42627707 1.15484547,9.37557798 1.05575393,11.4780237 L5.822,11.478 L5.82309626,11.399302 C5.86262723,9.80408632 6.05934513,8.26508056 6.39825906,6.85532699 C5.20760546,6.58769715 4.0597944,6.23248673 2.97377145,5.79454657 Z M7.42134916,7.06499364 C7.09010905,8.42534821 6.89977179,9.92174885 6.86496839,11.4781777 L11.478,11.478 L11.478,7.464 L11.3337432,7.46289114 C10.0040428,7.4292787 8.69246246,7.29519239 7.42134916,7.06499364 Z M16.579435,7.063212 L16.0639088,7.1525998 C14.9081975,7.33681745 13.7220303,7.44239894 12.5217925,7.46614587 L12.521,11.478 L17.134,11.478 L17.1336921,11.4213447 C17.0955816,9.88530403 16.9059446,8.40858536 16.579435,7.063212 Z M21.0246907,5.79333757 L21.4176,5.63201739 C20.2172428,6.14527988 18.9363866,6.55532723 17.6023512,6.85682669 C17.9462824,8.28837328 18.1438046,9.85470682 18.1787255,11.4779808 L22.9442461,11.4780237 C22.8451137,9.37471214 22.1501167,7.42467156 21.0246907,5.79333757 Z M11.4788602,1.10181462 C10.3648953,1.35193933 9.30982739,2.39964845 8.46386087,4.11448696 C8.17084357,4.70842537 7.9151031,5.35872454 7.6990227,6.05367076 C8.92637955,6.27197627 10.1936127,6.39605552 11.4788047,6.42247445 L11.4788602,1.10181462 Z M12.5219158,1.101989 L12.521,6.421 L12.6260078,6.42010592 C13.8752847,6.38926146 15.1070128,6.26620956 16.3010774,6.05486161 C16.0848969,5.35872454 15.8291564,4.70842537 15.5361391,4.11448696 C14.6903691,2.40004667 13.6355947,1.35242597 12.5219158,1.101989 Z M9.00128428,1.46020299 L8.95862391,1.47283944 C6.85574936,2.08131371 5.01116152,3.30428733 3.63290199,4.9337187 C4.59765721,5.30603853 5.61734313,5.61307795 6.67234981,5.84931571 C6.9104063,5.06047522 7.19690957,4.32399579 7.52801739,3.6528 C7.96423784,2.76860853 8.46048139,2.03353015 9.00128428,1.46020299 Z M14.9975951,1.46027072 L15.1241579,1.59698823 C15.6163924,2.14884374 16.0697097,2.83741806 16.4719826,3.6528 C16.8030904,4.32398014 17.0895937,5.06045331 17.3284708,5.84749254 C18.380861,5.6134773 19.3988685,5.30708445 20.3670266,4.93297669 C18.9792817,3.2929889 17.1186476,2.06437312 14.9975951,1.46027072 Z" id="Combined-Shape"></path>
            </g>
        </g>
    </g>
</svg>