<?xml version="1.0" encoding="UTF-8"?>
<svg width="151px" height="148px" viewBox="0 0 151 148" version="1.1" xmlns="http://www.w3.org/2000/svg" xmlns:xlink="http://www.w3.org/1999/xlink">
    <!-- Generator: Sketch 57.1 (83088) - https://sketch.com -->
    <title>3</title>
    <desc>Created with Sketch.</desc>
    <defs>
        <linearGradient x1="100%" y1="50%" x2="0%" y2="50%" id="linearGradient-1">
            <stop stop-color="#ff6600" offset="0%"></stop>
            <stop stop-color="#ff6600" offset="100%"></stop>
        </linearGradient>
    </defs>
    <g id="Page-1" stroke="none" stroke-width="1" fill="none" fill-rule="evenodd">
        <g id="3" transform="translate(-5.000000, -6.000000)" fill="url(#linearGradient-1)" fill-rule="nonzero">
            <path d="M104.325475,61.9325902 C106.082053,61.9325902 107.518372,63.3083373 107.615339,65.0407393 L107.620557,65.2276721 L107.620557,110.62718 L152.196721,110.62718 C153.953299,110.62718 155.389618,112.002927 155.486585,113.735329 L155.491803,113.922262 L155.491803,150.647246 C155.491803,152.403823 154.116056,153.840142 152.383654,153.93711 L152.196721,153.942328 L104.367028,153.942328 L104.346623,153.944679 L104.325475,153.947115 L56.4590164,153.947115 L56.4328856,153.94466 L56.4080957,153.942328 L8.59016393,153.942328 C6.83358647,153.942328 5.39726767,152.566581 5.30029988,150.834179 L5.29508197,150.647246 L5.29508197,84.212459 C5.29508197,82.4558816 6.67082913,81.0195628 8.40323111,80.922595 L8.59016393,80.917377 L53.1639344,80.917377 L53.1639344,65.2276721 C53.1639344,63.4710947 54.5396816,62.0347759 56.2720836,61.9378081 L56.4590164,61.9325902 L104.325475,61.9325902 Z M101.030393,68.5227541 L59.7540984,68.5227541 L59.7540984,147.356951 L101.030393,147.356951 L101.030393,68.5227541 Z M53.1639344,87.507541 L11.8852459,87.507541 L11.8852459,147.352164 L53.1639344,147.352164 L53.1639344,87.507541 Z M148.901639,117.217344 L107.620557,117.217344 L107.620557,147.352164 L148.901639,147.352164 L148.901639,117.217344 Z M83.694,6.55288525 C84.7563996,6.55288525 85.727974,7.15621835 86.2015722,8.11087826 L92.22302,20.3150833 L105.691904,22.2737748 C106.745475,22.4264123 107.6192,23.1637157 107.946634,24.1720807 C108.278624,25.1829712 108.004178,26.2974479 107.242273,27.0406791 L97.4969985,36.5416881 L99.8038862,49.9566696 C99.9827714,51.0038935 99.5511908,52.0651231 98.6930897,52.6881787 C97.8318129,53.3145619 96.6878534,53.3990292 95.7488333,52.9034337 L83.6963489,46.5683898 L71.6427042,52.9028314 C71.2392812,53.1155454 70.7926904,53.2240984 70.3409836,53.2240984 C69.753569,53.2240984 69.1744825,53.0368895 68.6996007,52.6898442 C67.8380436,52.0669869 67.4073635,51.0054074 67.5866669,49.9557376 L69.8910522,36.541911 L60.142488,27.042185 C59.3786527,26.3007059 59.1048665,25.1899457 59.4331509,24.1752504 C59.7616197,23.1637157 60.6353451,22.4264123 61.6884095,22.2738483 L75.1604877,20.3150275 L81.1883932,8.11174704 C81.658106,7.15740981 82.6305567,6.55288525 83.694,6.55288525 Z M83.6957579,15.6637696 L79.5239308,24.1078782 C79.1178074,24.9313027 78.3321812,25.5020222 77.4231412,25.6361428 L77.4210308,25.6364519 L68.0980889,26.9916566 L74.8434622,33.5656888 C75.5038026,34.2073755 75.8056955,35.1354168 75.6490855,36.041515 L74.0537178,45.3222221 L82.3976826,40.9384406 C83.2094617,40.5139323 84.1772118,40.5139323 84.9945838,40.9394226 L93.3318046,45.3217321 L91.7366758,36.0424126 C91.5799111,35.1354168 91.881804,34.2073755 92.5409919,33.5668105 L99.2856031,26.9916025 L89.9693983,25.636802 C89.0571102,25.5064751 88.2689507,24.9336375 87.8617253,24.1079787 L83.6957579,15.6637696 Z"></path>
        </g>
    </g>
</svg>