<?xml version="1.0" encoding="UTF-8"?>
<svg width="24px" height="24px" viewBox="0 0 24 24" version="1.1" xmlns="http://www.w3.org/2000/svg" xmlns:xlink="http://www.w3.org/1999/xlink">
    <!-- Generator: Sketch 57.1 (83088) - https://sketch.com -->
    <title>support</title>
    <desc>Created with Sketch.</desc>
    <defs>
        <linearGradient x1="100%" y1="50%" x2="0%" y2="50%" id="linearGradient-1">
            <stop stop-color="#ff6600" offset="0%"></stop>
            <stop stop-color="#ff6600" offset="100%"></stop>
        </linearGradient>
    </defs>
    <g id="Page-1" stroke="none" stroke-width="1" fill="none" fill-rule="evenodd">
        <g id="support" transform="translate(-3.000000, -3.000000)">
            <polygon id="Path" points="0 0 30 0 30 30 0 30"></polygon>
            <polygon id="Path" points="0 0 30 0 30 30 0 30"></polygon>
            <path d="M15,3 C21.627417,3 27,8.372583 27,15 C27,21.627417 21.627417,27 15,27 C8.372583,27 3,21.627417 3,15 C3,8.372583 8.372583,3 15,3 Z M14.8100586,18.5458984 C14.367348,18.5458984 13.997967,18.6773262 13.7019043,18.9401855 C13.4058416,19.2030449 13.2578125,19.5392232 13.2578125,19.9487305 C13.2578125,20.3582377 13.4058416,20.694416 13.7019043,20.9572754 C13.997967,21.2201348 14.367348,21.3515625 14.8100586,21.3515625 C15.2527691,21.3515625 15.6221502,21.2201348 15.9182129,20.9572754 C16.2142756,20.694416 16.3623047,20.3582377 16.3623047,19.9487305 C16.3623047,19.5392232 16.2142756,19.2030449 15.9182129,18.9401855 C15.6221502,18.6773262 15.2527691,18.5458984 14.8100586,18.5458984 Z M14.9345703,9 C13.6949808,9 12.7320998,9.30850928 12.0458984,9.92553711 C11.3596971,10.5425649 11.0110678,11.4044541 11,12.5112305 L11,12.5112305 L13.8056641,12.5112305 C13.8167318,12.0961893 13.9246409,11.7669283 14.1293945,11.5234375 C14.3341482,11.2799467 14.6025374,11.1582031 14.9345703,11.1582031 C15.653975,11.1582031 16.0136719,11.5760049 16.0136719,12.4116211 C16.0136719,12.7547218 15.9071462,13.0687649 15.6940918,13.3537598 C15.4810373,13.6387547 15.1697612,13.9527978 14.7602539,14.2958984 C14.3507467,14.6389991 14.0546884,15.0443499 13.8720703,15.5119629 C13.6894522,15.9795759 13.5981445,16.6173462 13.5981445,17.425293 L13.5981445,17.425293 L15.972168,17.425293 C15.9832357,17.0047179 16.0413406,16.6574721 16.1464844,16.3835449 C16.2516281,16.1096178 16.4397773,15.842612 16.7109375,15.5825195 L16.7109375,15.5825195 L17.6655273,14.6943359 C18.0695007,14.3014303 18.3627921,13.9168313 18.5454102,13.5405273 C18.7280283,13.1642234 18.8193359,12.7464216 18.8193359,12.2871094 C18.8193359,11.2356718 18.4803908,10.4249703 17.8024902,9.85498047 C17.1245897,9.28499064 16.168626,9 14.9345703,9 Z" id="Combined-Shape" fill="url(#linearGradient-1)" fill-rule="nonzero"></path>
        </g>
    </g>
</svg>