<svg xmlns="http://www.w3.org/2000/svg" xmlns:xlink="http://www.w3.org/1999/xlink" width="174" height="174" viewBox="0 0 174 174">
    <defs>
        <linearGradient id="a" x1="115.308%" x2="-13.162%" y1="50%" y2="50%">
            <stop offset="0%" stop-color="#53A1FC"/>
            <stop offset="47.983%" stop-color="#79E3FF"/>
            <stop offset="100%" stop-color="#53A1FC"/>
        </linearGradient>
        <linearGradient id="b" x1="50%" x2="50%" y1="0%" y2="97.659%">
            <stop offset="0%" stop-color="#FFE2BC"/>
            <stop offset="100%" stop-color="#FCC39C"/>
        </linearGradient>
        <path id="c" d="M116.233 35.492c-2.287-.3-4.375.599-5.867 2.196-.696-2.895-3.38-5.091-6.463-5.091-1.989 0-3.878.898-5.071 2.396-.895-2.696-3.38-4.692-6.364-4.692-1.79 0-3.48.798-4.673 1.996V6.94c0-3.394-2.387-6.49-5.768-6.888-4.076-.5-7.557 2.695-7.557 6.688v45.124c0 .899-1.193 1.298-1.69.5l-7.756-11.78c-1.79-2.796-5.767-3.395-8.85-1.299-3.082 1.997-4.076 5.99-2.286 8.686 0 0 21.676 32.944 21.875 33.144C79.74 86.605 86.104 90 92.965 90h7.756c11.634 0 21.18-9.384 21.279-20.965V42.58c0-3.594-2.486-6.689-5.767-7.088z"/>
        <filter id="d" width="139.1%" height="130%" x="-19.6%" y="-15%" filterUnits="objectBoundingBox">
            <feGaussianBlur in="SourceAlpha" result="shadowBlurInner1" stdDeviation="3.5"/>
            <feOffset dy="-6" in="shadowBlurInner1" result="shadowOffsetInner1"/>
            <feComposite in="shadowOffsetInner1" in2="SourceAlpha" k2="-1" k3="1" operator="arithmetic" result="shadowInnerInner1"/>
            <feColorMatrix in="shadowInnerInner1" values="0 0 0 0 0.980867347 0 0 0 0 0.746314442 0 0 0 0 0.642068706 0 0 0 1 0"/>
        </filter>
    </defs>
    <g fill="none" fill-rule="evenodd">
        <path fill="url(#a)" fill-rule="nonzero" d="M9.516 34.89C30.73 17.048 56.629 8.243 87.034 8.5c29.936.253 55.493 8.84 76.518 25.748l-.78-11.153a4 4 0 0 1 7.98-.558l1.535 21.946a4 4 0 0 1-3.711 4.27l-21.947 1.534a4 4 0 1 1-.558-7.98l13.544-.947c-19.797-16.336-43.96-24.618-72.649-24.86-28.756-.243-52.952 8.051-72.769 24.908l12.844.899a4 4 0 1 1-.558 7.98L4.537 48.752a4 4 0 0 1-3.711-4.269L2.36 22.537a4 4 0 0 1 7.98.558L9.517 34.89z" transform="translate(0 42)"/>
        <g transform="translate(0 42)">
            <use fill="url(#b)" xlink:href="#c"/>
            <use fill="#000" filter="url(#d)" xlink:href="#c"/>
            <path stroke="#FFF" stroke-width="7" d="M116.671 32.02c5.086.627 8.829 5.25 8.829 10.56v26.486c-.116 13.5-11.222 24.434-24.779 24.434h-7.756c-7.919 0-15.361-3.878-20.036-10.332l.005-.003c-.612-.847-2.573-3.823-11.03-16.657l-.026-.039A28971.105 28971.105 0 0 1 51.9 51.32l-.692-1.052-.237-.36C48.046 45.5 49.638 39.35 54.206 36.39c4.638-3.154 10.86-2.234 13.742 2.268l3.022 4.592V6.74c0-6.125 5.349-10.915 11.468-10.165 5.13.606 8.857 5.169 8.857 10.364v19.933c.387-.048.78-.072 1.173-.072 2.853 0 5.463 1.2 7.333 3.164a10.137 10.137 0 0 1 4.102-.868c3.027 0 5.82 1.376 7.706 3.568a10.016 10.016 0 0 1 5.062-.646z"/>
        </g>
    </g>
</svg>
